# xmcd
#
# Track frame offsets:
#	150
#	14336
#	29662
#	44142
#	56877
#	76614
#	90199
#	104523
#	121920
#	140132
#	158240
#	175950
#	194275
#
# Disc length: 2736 seconds
#
# Revision: 0
# Processed by: cddbd v1.5.1PL0 Copyright (c) Steve Scherf et al.
# Submitted via: audiograbber 1.83.01
#
DISCID=b00aae0d
DTITLE=Mary McBride - By Any Other Name
DYEAR=2004
DGENRE=Country-Rock
TTITLE0=Weathervane
TTITLE1=One-eyed Dog
TTITLE2=That Was Then
TTITLE3=I Got Everything
TTITLE4=Black-eyed Strays
TTITLE5=By Any Other Name
TTITLE6=Stop Don`t Stop
TTITLE7=Falling
TTITLE8=Bottle and A Bible
TTITLE9=Toll Girl
TTITLE10=No Time
TTITLE11=Coming Up Empty
TTITLE12=Semi-star
EXTD=
EXTT0=
EXTT1=
EXTT2=
EXTT3=
EXTT4=
EXTT5=
EXTT6=
EXTT7=
EXTT8=
EXTT9=
EXTT10=
EXTT11=
EXTT12=
PLAYORDER=
